<?xml version="1.0" encoding="UTF-8"?>
<svg
  id="Layer_1"
  data-name="Layer 1"
  xmlns="http://www.w3.org/2000/svg"
  xmlns:xlink="http://www.w3.org/1999/xlink"
  width="256"
  height="256"
  viewBox="80.50749 66.375 161.61502 161.61502"
>
  <defs>
    <style>
      .cls-1 {
        fill: url(#linear-gradient-2);
      }

      .cls-2 {
        fill: url(#linear-gradient-3);
      }

      .cls-3 {
        fill: url(#linear-gradient);
      }
    </style>
    <linearGradient id="linear-gradient" x1="87.24" y1="103.02" x2="162.29" y2="233.02" gradientUnits="userSpaceOnUse">
      <stop offset=".01" stop-color="#f6b360"/>
      <stop offset="1" stop-color="#f36c64"/>
    </linearGradient>
    <linearGradient id="linear-gradient-2" x1="136.5" y1="74.54" x2="211.59" y2="204.6" xlink:href="#linear-gradient"/>
    <linearGradient id="linear-gradient-3" x1="180.69" y1="79.99" x2="221.7" y2="151.03" gradientUnits="userSpaceOnUse">
      <stop offset="0" stop-color="#f14a66"/>
      <stop offset=".99" stop-color="#f03367"/>
    </linearGradient>
  </defs>
  <g>
    <path class="cls-3" d="m154.51,225.11c6.67,3.85,14.88,3.84,21.53-.03l14.16-8.23-50.39-29.09c-15.23-8.79-24.61-25.04-24.61-42.63v-58.21s-14.22,8.16-14.22,8.16c-6.67,3.83-10.79,10.94-10.79,18.63v45.69c0,17.68,9.43,34.02,24.74,42.86l39.57,22.84Z"/>
    <path class="cls-1" d="m173.06,71.58c-7.98,3.63-13.86,11.06-15.34,19.99-.23,1.42-.36,2.87-.36,4.35v38.84c0,4.47,1.21,8.77,3.37,12.51,2.15,3.74,5.28,6.92,9.15,9.15l12,6.91c6.04,3.48,13.05,5.47,20.52,5.47,11.84,0,22.52-4.99,30.04-12.98v22.34c0,4.45-1.19,8.72-3.33,12.44-2.16,3.75-5.28,6.94-9.16,9.18h0c-7.72,4.46-17.24,4.46-24.96,0l-25.61-14.78-18.63-10.76c-11.37-6.56-18.37-18.7-18.37-31.82v-51.07c0-4.46,1.19-8.76,3.34-12.49,2.15-3.74,5.27-6.91,9.13-9.14,7.74-4.46,17.25-4.46,24.97,0l3.24,1.87Z"/>
  </g>
  <path class="cls-2" d="m214.06,95.26c11.37,6.56,18.38,18.69,18.38,31.82v.04c0,16.21-12.69,29.83-28.89,30.44-3.08.11-6.06-.24-8.88-.99,7.44-4.18,12.77-12.07,12.77-21.82h0c0-6.59-2.58-12.8-7.04-17.41-1.59-1.65-3.42-3.09-5.47-4.27l-26.36-15.22v-1.86c0-8.62,6.98-15.59,15.59-15.59,2.65,0,5.15.66,7.33,1.83l22.57,13.03Z"/>
</svg>
